{
  "source": "C:\\Users\\Peter\\Desktop\\stuff\\MIUN\\quantitative_research\\video_compression\\videos\\BVI-HD\\BVI-HD_CDVL_videos\\ORIG\\Surfers_1920x1080_30fps.mp4",
  "output": "C:\\Users\\Peter\\Desktop\\stuff\\MIUN\\quantitative_research\\video_compression\\compressed_videos\\BVI-HD\\vp9\\1.5\\Surfers_1920x1080_30fps_vp9.webm",
  "codec": "vp9",
  "ok": "Input #0, mov,mp4,m4a,3gp,3g2,mj2, from 'C:\\Users\\Peter\\Desktop\\stuff\\MIUN\\quantitative_research\\video_compression\\videos\\BVI-HD\\BVI-HD_CDVL_videos\\ORIG\\Surfers_1920x1080_30fps.mp4':\n  Metadata:\n    major_brand     : isom\n    minor_version   : 512\n    compatible_brands: isomiso2avc1mp41\n    encoder         : Lavf54.28.101\n  Duration: 00:00:05.00, start: 0.000000, bitrate: 232762 kb/s\n  Stream #0:0[0x1](und): Video: h264 (High 4:4:4 Predictive) (avc1 / 0x31637661), yuv420p(progressive), 1920x1080, 232759 kb/s, 30 fps, 30 tbr, 30 tbn (default)\n    Metadata:\n      handler_name    : VideoHandler\n      vendor_id       : [0][0][0][0]\n[out#0/webm @ 00000205d57a0c40] Codec AVOption b:a (set bitrate (in bits/s)) has not been used for any stream. The most likely reason is either wrong type (e.g. a video option with no video streams) or that it is a private option of some decoder which was not actually used for any stream.\nStream mapping:\n  Stream #0:0 -> #0:0 (h264 (native) -> vp9 (libvpx-vp9))\nPress [q] to stop, [?] for help\n[libvpx-vp9 @ 00000205d5d90b40] v1.15.2-100-g40561f514\nOutput #0, webm, to 'C:\\Users\\Peter\\Desktop\\stuff\\MIUN\\quantitative_research\\video_compression\\compressed_videos\\BVI-HD\\vp9\\1.5\\Surfers_1920x1080_30fps_vp9.webm':\n  Metadata:\n    major_brand     : isom\n    minor_version   : 512\n    compatible_brands: isomiso2avc1mp41\n    encoder         : Lavf62.3.100\n  Stream #0:0(und): Video: vp9, yuv420p(tv, progressive), 1920x1080, q=2-31, 1500 kb/s, 30 fps, 1k tbn (default)\n    Metadata:\n      encoder         : Lavc62.11.100 libvpx-vp9\n      handler_name    : VideoHandler\n      vendor_id       : [0][0][0][0]\n    Side data:\n      cpb: bitrate max/min/avg: 0/0/0 buffer size: 1500000 vbv_delay: N/A\nframe=    0 fps=0.0 q=0.0 size=       0KiB time=N/A bitrate=N/A speed=N/A elapsed=0:00:00.51    \nframe=    6 fps=5.3 q=58.0 size=       1KiB time=00:00:00.20 bitrate=  25.4kbits/s speed=0.176x elapsed=0:00:01.13    \nframe=   12 fps=7.3 q=57.0 size=       1KiB time=00:00:00.40 bitrate=  12.7kbits/s speed=0.242x elapsed=0:00:01.65    \nframe=   18 fps=8.2 q=57.0 size=       1KiB time=00:00:00.60 bitrate=   8.5kbits/s speed=0.272x elapsed=0:00:02.20    \nframe=   23 fps=8.4 q=54.0 size=       1KiB time=00:00:00.76 bitrate=   6.6kbits/s speed=0.279x elapsed=0:00:02.75    \nframe=   28 fps=8.5 q=59.0 size=       1KiB time=00:00:00.93 bitrate=   5.4kbits/s speed=0.284x elapsed=0:00:03.28    \nframe=   32 fps=8.4 q=58.0 size=       1KiB time=00:00:01.06 bitrate=   4.8kbits/s speed=0.28x elapsed=0:00:03.80    \nframe=   38 fps=8.8 q=57.0 size=       1KiB time=00:00:01.26 bitrate=   4.0kbits/s speed=0.293x elapsed=0:00:04.32    \nframe=   42 fps=8.6 q=56.0 size=       1KiB time=00:00:01.40 bitrate=   3.6kbits/s speed=0.288x elapsed=0:00:04.85    \nframe=   47 fps=8.7 q=57.0 size=       1KiB time=00:00:01.56 bitrate=   3.2kbits/s speed=0.291x elapsed=0:00:05.37    \nframe=   52 fps=8.8 q=58.0 size=       1KiB time=00:00:01.73 bitrate=   2.9kbits/s speed=0.294x elapsed=0:00:05.89    \nframe=   57 fps=8.9 q=56.0 size=       1KiB time=00:00:01.90 bitrate=   2.7kbits/s speed=0.296x elapsed=0:00:06.42    \nframe=   61 fps=8.8 q=39.0 size=       1KiB time=00:00:02.03 bitrate=   2.5kbits/s speed=0.293x elapsed=0:00:06.95    \nframe=   67 fps=9.0 q=55.0 size=       1KiB time=00:00:02.23 bitrate=   2.3kbits/s speed=0.298x elapsed=0:00:07.48    \nframe=   72 fps=9.0 q=56.0 size=       1KiB time=00:00:02.40 bitrate=   2.1kbits/s speed=0.299x elapsed=0:00:08.01    \nframe=   77 fps=9.0 q=42.0 size=       1KiB time=00:00:02.56 bitrate=   2.0kbits/s speed=0.301x elapsed=0:00:08.53    \nframe=   82 fps=9.0 q=59.0 size=       1KiB time=00:00:02.73 bitrate=   1.9kbits/s speed=0.301x elapsed=0:00:09.06    \nframe=   86 fps=9.0 q=57.0 size=       1KiB time=00:00:02.86 bitrate=   1.8kbits/s speed=0.298x elapsed=0:00:09.60    \nframe=   91 fps=9.0 q=55.0 size=       1KiB time=00:00:03.03 bitrate=   1.7kbits/s speed=0.299x elapsed=0:00:10.12    \nframe=   95 fps=8.9 q=42.0 size=       1KiB time=00:00:03.16 bitrate=   1.6kbits/s speed=0.297x elapsed=0:00:10.66    \nframe=  100 fps=8.9 q=56.0 size=       1KiB time=00:00:03.33 bitrate=   1.5kbits/s speed=0.298x elapsed=0:00:11.19    \nframe=  104 fps=8.9 q=57.0 size=       1KiB time=00:00:03.46 bitrate=   1.5kbits/s speed=0.296x elapsed=0:00:11.71    \nframe=  109 fps=8.9 q=58.0 size=       1KiB time=00:00:03.63 bitrate=   1.4kbits/s speed=0.296x elapsed=0:00:12.25    \nframe=  114 fps=8.9 q=59.0 size=       1KiB time=00:00:03.80 bitrate=   1.3kbits/s speed=0.297x elapsed=0:00:12.78    \nframe=  119 fps=8.9 q=58.0 size=       1KiB time=00:00:03.96 bitrate=   1.3kbits/s speed=0.298x elapsed=0:00:13.29    \nframe=  124 fps=9.0 q=54.0 size=       1KiB time=00:00:04.13 bitrate=   1.2kbits/s speed=0.299x elapsed=0:00:13.82    \nframe=  126 fps=8.8 q=57.0 size=       1KiB time=00:00:04.20 bitrate=   1.2kbits/s speed=0.292x elapsed=0:00:14.35    \nframe=  126 fps=8.5 q=57.0 size=       1KiB time=00:00:04.20 bitrate=   1.2kbits/s speed=0.282x elapsed=0:00:14.88    \nframe=  126 fps=8.2 q=57.0 size=       1KiB time=00:00:04.20 bitrate=   1.2kbits/s speed=0.273x elapsed=0:00:15.41    \nframe=  126 fps=7.9 q=57.0 size=       1KiB time=00:00:04.20 bitrate=   1.2kbits/s speed=0.264x elapsed=0:00:15.92    \nframe=  126 fps=7.7 q=57.0 size=       1KiB time=00:00:04.20 bitrate=   1.2kbits/s speed=0.256x elapsed=0:00:16.43    \n[out#0/webm @ 00000205d57a0c40] video:925KiB audio:0KiB subtitle:0KiB other streams:0KiB global headers:0KiB muxing overhead: 0.185605%\nframe=  150 fps=9.0 q=58.0 Lsize=     927KiB time=00:00:05.00 bitrate=1519.2kbits/s speed= 0.3x elapsed=0:00:16.65    \n",
  "seconds": 16.916324138641357,
  "probe_out": {}
}